<?xml version="1.0" encoding="utf-8" ?>
<svg xmlns="http://www.w3.org/2000/svg" xmlns:xlink="http://www.w3.org/1999/xlink" width="512" height="512">
	<path fill="#E39B48" d="M430.802 14.6346C454.707 13.2434 477.886 21.5389 488.858 44.375C514.627 98.0102 461.862 158.088 422.905 190.631C406.434 204.39 389.311 216.548 369.474 224.875L358.45 229.029C348.648 232.501 350.508 231.345 345.12 240.083L341.505 245.34C338.821 249.022 335.652 252.368 332.581 255.726L287.518 302.01C272.035 317.235 258.375 327.819 238.246 335.897C235.706 336.916 232.754 337.527 230.34 338.697C230.331 346.445 230.216 353.808 228.244 361.375C222.515 383.358 207.599 402.486 193.319 419.708C166.312 452.282 125.648 490.369 81.0612 494.516L67.2109 494.465C32.3157 491.599 14.1222 458.283 17.2115 426.07C21.3532 382.883 60.5831 340.814 92 314.719C110.387 299.447 124.813 290.15 146.219 279.875L156 275.26C160.954 273.034 162.379 272.61 165.546 268.078L169.086 263.244C171.393 260.188 173.804 257.272 176.426 254.484L206.936 224.998C227.751 203.684 238.242 187.398 265.739 172.808L276.106 167.4C278.301 166.269 280.731 165.234 282.651 163.67L282.566 162.503C281.13 137.229 295.339 117.981 310.504 99.3177L329.917 76.2993L345.333 60.6137C367.83 38.952 398.262 16.3076 430.802 14.6346ZM190.624 346.482L189.961 346.618C187.071 347.221 183.942 347.143 181.048 346.562L178.75 346.016C171.331 343.896 163.541 338.909 161.305 331.129L161.199 330.75C160.416 328.077 160.621 325.567 161.594 322.972C160.831 321.072 160.082 319.462 158.78 317.849C129.734 313.198 112.405 339.275 98.562 359.797C90.824 371.268 82.8515 382.483 72.7976 392.052C69.7496 394.953 66.1325 397.716 63.8096 401.267L63.5556 401.651C61.35 405.046 61.1891 408.182 61.2171 412.097C61.3291 427.739 72.5205 443.725 88.438 446.341C110.553 449.974 122.517 433.824 136.905 420.367L154.128 404.072C172.78 386.674 186.61 375.251 190.373 349.025L190.624 346.482ZM321.082 156.328L322.802 157.348C327.564 159.9 336.959 152.087 349.633 164.258C351.842 166.379 354.082 168.861 355.134 171.794L355.502 173C358.044 181.649 352.866 182.855 351.585 189.077C354.171 189.869 353.639 190.462 357.023 190.101C392.288 186.341 404.132 157.627 423.244 132.873L439.035 114.268C445.764 106.94 451.532 103.48 450.15 92.2368C446.474 62.325 417.277 52.4302 393.903 69.1999C384.407 76.0131 376.37 84.9754 367.798 92.8825L347.745 110.514C343.998 114.047 340.791 118.034 337.178 121.687C322.509 136.517 324.738 135.105 321.134 156.038L321.082 156.328ZM285.43 201.018C277.057 202.102 264.063 215.064 258.361 220.773L240.893 238.704C228.411 251.485 222.347 257.301 206.887 266.191C205.202 267.16 203.762 268.491 202.048 269.39C197.239 274.104 198.714 283.116 200.514 288.826C204.74 286.89 208.86 285.906 213.365 287.587C219.659 289.937 228.347 299.197 226.076 306.691C227.269 307.146 228.099 306.938 229.303 306.596C245.934 302.874 258.044 289.908 269.576 278.327L302.95 245.084L302.983 245.082C307.397 241.647 316.613 226.594 314.546 221.906C307.246 225.731 295.228 219.778 290.636 214.158C287.301 210.078 287.406 206.062 287.874 201.087C287.042 201.173 286.223 201.356 285.43 201.018ZM288.244 198.817C287.761 198.989 285.383 199.606 285.235 199.811C269.799 205.054 264.886 206.899 253.182 218.125L242.775 228.098C228.916 241.33 214.149 254.502 202.048 269.39C203.762 268.491 205.202 267.16 206.887 266.191C222.347 257.301 228.411 251.485 240.893 238.704L258.361 220.773C264.063 215.064 277.057 202.102 285.43 201.018C286.223 201.356 287.042 201.173 287.874 201.087C288.126 200.31 288.199 199.631 288.244 198.817Z"/>
	<path fill="#040605" d="M200.514 288.826C204.74 286.89 208.86 285.906 213.365 287.587C219.659 289.937 228.347 299.197 226.076 306.691C220.68 314.066 215.224 320.465 208 326.263C195.626 336.195 194.292 324.255 181.756 329.242C185.219 332.396 190.77 334.288 193.478 337.995C192.941 341.036 191.918 343.686 190.624 346.482L189.961 346.618C187.071 347.221 183.942 347.143 181.048 346.562L178.75 346.016C171.331 343.896 163.541 338.909 161.305 331.129L161.199 330.75C160.416 328.077 160.621 325.567 161.594 322.972C165.549 318.151 170.58 314.18 175.297 310.125L200.514 288.826Z"/>
	<path fill="#040605" d="M321.082 156.328L322.802 157.348C327.564 159.9 336.959 152.087 349.633 164.258C351.842 166.379 354.082 168.861 355.134 171.794L355.502 173C358.044 181.649 352.866 182.855 351.585 189.077L349.625 188.748L348.061 189.99C344.68 193.48 322.457 215.433 318.023 215.583C315.4 217.29 315.799 219.241 314.527 221.851L314.546 221.906C307.246 225.731 295.228 219.778 290.636 214.158C287.301 210.078 287.406 206.062 287.865 201.087C288.126 200.31 288.199 199.631 288.244 198.817L298.546 189.559C308.491 181.047 319.095 173.008 330.814 167.104C328.243 164.518 323.087 163.105 319.687 161.799C319.905 160.145 320.129 158.111 320.92 156.62L321.082 156.328Z"/>
	<path fill="#E8BFBA" d="M285.43 201.018C286.223 201.356 287.042 201.173 287.874 201.087C287.406 206.062 287.301 210.078 290.636 214.158C295.228 219.778 307.246 225.731 314.546 221.906C316.613 226.594 307.397 241.647 302.983 245.082L302.95 245.084L269.576 278.327C258.044 289.908 245.934 302.874 229.303 306.596C228.099 306.938 227.269 307.146 226.076 306.691C228.347 299.197 219.659 289.937 213.365 287.587C208.86 285.906 204.74 286.89 200.514 288.826C198.714 283.116 197.239 274.104 202.048 269.39C203.762 268.491 205.202 267.16 206.887 266.191C222.347 257.301 228.411 251.485 240.893 238.704L258.361 220.773C264.063 215.064 277.057 202.102 285.43 201.018ZM229.303 306.596C245.934 302.874 258.044 289.908 269.576 278.327L302.95 245.084L302.379 244.815C298.357 247.58 293.954 249.639 289.941 252.432C283.345 257.023 277.669 262.316 271.757 267.715L250.349 288.911C246.038 293.806 241.563 299.686 235.767 302.926C234.098 303.859 230.011 304.709 229.303 306.596Z"/>
</svg>
